<?xml version="1.0" encoding="utf-8"?>
<!-- Generator: Adobe Illustrator 24.2.3, SVG Export Plug-In . SVG Version: 6.00 Build 0)  -->
<svg version="1.1" id="Layer_1" xmlns="http://www.w3.org/2000/svg" xmlns:xlink="http://www.w3.org/1999/xlink" x="0px" y="0px"
	 viewBox="0 0 222.5 197.9" style="enable-background:new 0 0 222.5 197.9;" xml:space="preserve">
<style type="text/css">
	.st0{fill:#111B47;}
</style>
<circle class="st0" cx="22" cy="99.3" r="22"/>
<rect x="43.5" y="95.8" class="st0" width="19" height="7"/>
<circle class="st0" cx="200.5" cy="99.3" r="22"/>
<rect x="166" y="89.6" transform="matrix(5.410451e-03 -1 1 5.410451e-03 69.4948 268.0117)" class="st0" width="7" height="19"/>
<circle class="st0" cx="156.1" cy="22" r="22"/>
<rect x="130.4" y="45" transform="matrix(0.5207 -0.8537 0.8537 0.5207 25.6877 142.7007)" class="st0" width="19" height="7"/>
<circle class="st0" cx="66.4" cy="175.6" r="22"/>
<rect x="73.4" y="145.9" transform="matrix(0.5314 -0.8471 0.8471 0.5314 -87.7024 140.1941)" class="st0" width="19" height="7"/>
<circle class="st0" cx="66.9" cy="22.3" r="22"/>
<rect x="79.6" y="39.3" transform="matrix(0.8537 -0.5207 0.5207 0.8537 -13.2457 50.3891)" class="st0" width="7" height="19"/>
<circle class="st0" cx="156.6" cy="175.9" r="22"/>
<rect x="136.7" y="140.2" transform="matrix(0.8471 -0.5314 0.5314 0.8471 -58.1166 97.3603)" class="st0" width="7" height="19"/>
<circle class="st0" cx="111" cy="99.3" r="36.5"/>
</svg>
