<svg id="Layer_1" data-name="Layer 1" xmlns="http://www.w3.org/2000/svg" viewBox="0 0 279.76 194.01"><defs><style>.cls-1{fill:#111b47;}</style></defs><path class="cls-1" d="M51.5,38.4C41.7,43,36,51.8,36,62.6s7.7,21.7,17.2,24.6L57,88.3V128H37.1c-21.7,0-22.6.2-21.9,5.7.6,5.1,2,5.3,43.1,5.3H96v19.2l-.1,19.3-6.1,3c-10.4,5-15.5,13.9-14.6,25.5.8,10,7.3,19.1,16.3,22.6,6.9,2.6,17.9,1.6,23.6-2.2A27.81,27.81,0,0,0,127,209.5c2.6-12.4-5.7-27.5-16.7-30.4l-2.8-.7-.3-19.7L107,139h67v38.7l-4.3,1.7c-10.3,3.9-15.7,11.6-16.5,23.3-.4,6.4-.1,7.9,2.3,12.8,2.9,6,9.1,11.6,15.2,13.6a41.14,41.14,0,0,0,10.8.7c8.7-.6,14-3.7,19.1-11.1,4.6-6.7,5.9-13.5,3.9-21.2-2.3-8.8-7.3-14.4-15.9-18L185,178V139h36c23.1,0,36,.4,36,1a93.53,93.53,0,0,1-3.4,10l-3.4,8.9,5.7-4.3c7.5-5.7,20.3-13,30.4-17.3,4.5-1.9,8.3-3.6,8.5-3.8s-4.8-2.8-11.2-5.9q-18.9-9-27.9-15.9c-2.1-1.6-4-2.7-4.3-2.5s1.1,4.6,3,9.6l3.4,9.2H223V88.5l4.9-1.8c5.5-1.9,11.2-7.3,14.1-13.3,2.7-5.4,2.7-16.3.1-22.1C230.7,26.3,192,34.1,192,61.4a45.44,45.44,0,0,0,1.1,10c1.5,5.3,10.2,14,15.7,15.7l4.2,1.2V128H146V88.3l4.4-1.7c13.7-5.2,19.9-22.2,13.2-35.9-8-16.5-29.5-19.7-42.8-6.4-6.9,6.8-8.8,19.8-4.4,29.3,2.7,5.8,9.4,12,14.8,13.6l3.8,1.1V128H68V88.2L71.4,87c14.6-4.8,21.5-23.1,14-37a33.46,33.46,0,0,0-6.3-8.1C71.6,35.8,60.2,34.3,51.5,38.4Z" transform="translate(-15.05 -36.04)"/></svg>