<svg fill="#fff" height="239pt" preserveAspectRatio="xMidYMid meet" viewBox="0 0 313 239" width="313pt" xmlns="http://www.w3.org/2000/svg"><path d="m515 2006c-98-46-155-134-155-242 0-107 77-217 172-246l38-11v-199-198h-199c-217 0-226-2-219-57 6-51 20-53 431-53h377v-192l-1-193-61-30c-104-50-155-139-146-255 8-100 73-191 163-226 69-26 179-16 236 22 62 42 105 103 119 169 26 124-57 275-167 304l-28 7-3 197-2 197h335 335v-194-193l-43-17c-103-39-157-116-165-233-4-64-1-79 23-128 29-60 91-116 152-136 21-6 66-9 108-7 87 6 140 37 191 111 46 67 59 135 39 212-23 88-73 144-159 180l-36 15v195 195h360c231 0 360-4 360-10 0-5-15-50-34-100l-34-89 57 43c75 57 203 130 304 173 45 19 83 36 85 38s-48 28-112 59c-126 60-219 113-279 159-21 16-40 27-43 25-2-3 11-46 30-96l34-92h-174-174v198 197l49 18c55 19 112 73 141 133 27 54 27 163 1 221-114 250-501 172-501-101 0-34 5-79 11-100 15-53 102-140 157-157l42-12v-199-198h-335-335v199 198l44 17c137 52 199 222 132 359-80 165-295 197-428 64-69-68-88-198-44-293 27-58 94-120 148-136l38-11v-199-198h-335-335v199 199l34 12c146 48 215 231 140 370-15 28-44 65-63 81-75 61-189 76-276 35z" transform="matrix(.1 0 0 -.1 0 239)"/></svg>